<svg xmlns="http://www.w3.org/2000/svg" viewBox="0 0 166 42">
<path fill="#ffffff" d="M59.17,7c-.84-.23-1.78-.45-2.81-.64s-2-.3-3.21-.43A37.09,37.09,0,0,0,49,5.71V24.37c0,1.1,0,2.07,0,2.91s.07,1.53.1,2.12.12,1.11.18,1.51.17.74.23,1V32H44.89v-.08a9.44,9.44,0,0,0,.22-1c.07-.4.13-.91.18-1.51s.08-1.3.1-2.12,0-1.81,0-2.91V5.71a37.22,37.22,0,0,0-4.16.22c-1.22.13-2.29.27-3.2.43s-2,.41-2.78.64l.56-3.16.7,0,1,0L38.8,4c.43,0,.83,0,1.2,0H54.44c.38,0,.77,0,1.19,0l1.22,0,1,0,.72,0Z"/>
<path fill="#ffffff" d="M73.5,28.84a7.44,7.44,0,0,1-1.45,1.09,8,8,0,0,1-1.85.74,8.46,8.46,0,0,1-2.13.26,6.75,6.75,0,0,1-2.95-.63,6.36,6.36,0,0,1-2.2-1.77,9.46,9.46,0,0,1-1.43-2.82A15.33,15.33,0,0,1,60.86,22L63.75,22l3.32,0,4.6,0,4.41.06a13.28,13.28,0,0,0-.79-4.41,9.54,9.54,0,0,0-2-3.26,8.43,8.43,0,0,0-3-2,9.89,9.89,0,0,0-3.72-.7,9.29,9.29,0,0,0-3.8.78,9.55,9.55,0,0,0-3,2.17,10,10,0,0,0-2,3.28A10.88,10.88,0,0,0,57,22a11.78,11.78,0,0,0,.8,4.46,9.16,9.16,0,0,0,5.54,5.25,11.65,11.65,0,0,0,4.06.68,14.28,14.28,0,0,0,3.5-.37,12.37,12.37,0,0,0,2.52-.93l1.45-3.48-.23-.12A7.23,7.23,0,0,1,73.5,28.84ZM61.37,17.32A8.43,8.43,0,0,1,62.5,15a5.14,5.14,0,0,1,1.64-1.43,4.58,4.58,0,0,1,2.1-.5,5.22,5.22,0,0,1,2.28.5A5.32,5.32,0,0,1,70.32,15a8,8,0,0,1,1.25,2.29,13.63,13.63,0,0,1,.67,3c-1.07,0-2.26.07-3.57.08H62.73c-.66,0-1.28,0-1.87,0A12.45,12.45,0,0,1,61.37,17.32Z"/>
<path fill="#ffffff" d="M95.39,30.91c-.06-.4-.12-.91-.16-1.51s-.09-1.3-.12-2.12,0-1.81,0-2.91V18a6.74,6.74,0,0,0-.43-2.48,5,5,0,0,0-1.36-2,6.31,6.31,0,0,0-2.39-1.37,10.49,10.49,0,0,0-3.49-.51c-.5,0-1,0-1.43.06a11.43,11.43,0,0,0-1.31.16,9.78,9.78,0,0,0-1.27.31,10,10,0,0,0-1.27.47L80.8,15.36l.19.12a14.67,14.67,0,0,1,1.74-1.19,11.11,11.11,0,0,1,1.53-.74,8,8,0,0,1,1.43-.4A9.07,9.07,0,0,1,87.07,13a5.26,5.26,0,0,1,1.86.31,3.64,3.64,0,0,1,1.46.92,4,4,0,0,1,.94,1.54A6.75,6.75,0,0,1,91.67,18v1c-.79,0-1.65.06-2.57.14a23.65,23.65,0,0,0-2.86.39,16.57,16.57,0,0,0-2.8.78,9.12,9.12,0,0,0-2.39,1.29,6.38,6.38,0,0,0-1.7,1.93,5.45,5.45,0,0,0-.64,2.68,5.66,5.66,0,0,0,1.86,4.53,7.84,7.84,0,0,0,5.25,1.58,8.77,8.77,0,0,0,1.91-.19,8.51,8.51,0,0,0,1.57-.47A7.87,7.87,0,0,0,90.57,31a9.61,9.61,0,0,0,1-.73c0,.37-.06.68-.1.94a2.8,2.8,0,0,1-.14.7V32h4.32v-.08C95.55,31.65,95.48,31.31,95.39,30.91Zm-3.72-4.47c0,.6,0,1.14,0,1.64A4.37,4.37,0,0,1,91,29a4.63,4.63,0,0,1-1,.88,6.47,6.47,0,0,1-1.37.67,5.31,5.31,0,0,1-1.69.25,4.15,4.15,0,0,1-3.19-1.21,5,5,0,0,1-1.16-3.52,5,5,0,0,1,.74-2.87,4.92,4.92,0,0,1,2-1.68,9.13,9.13,0,0,1,2.9-.76,31.4,31.4,0,0,1,3.42-.21Z"/>
<path fill="#ffffff" d="M119.26,17.74a9.46,9.46,0,0,0-2-3.3,8.46,8.46,0,0,0-3.07-2.09,10.21,10.21,0,0,0-3.94-.74,9.94,9.94,0,0,0-3.11.47,13.92,13.92,0,0,0-2.54,1.11c0-.31.09-.59.14-.84a5.23,5.23,0,0,1,.18-.66v-.08h-4.51v.08q.1.41.21,1a10.44,10.44,0,0,1,.17,1.5c.06.6.1,1.31.13,2.15s.06,1.78.06,2.89V34.37c0,1.1,0,2.07-.06,2.89s-.07,1.55-.13,2.14a10.6,10.6,0,0,1-.17,1.51c-.07.4-.14.74-.21,1V42h4.51v-.08c-.07-.27-.14-.61-.22-1s-.11-.91-.16-1.51-.11-1.31-.12-2.14-.05-1.79-.05-2.89V31.51a16,16,0,0,0,2.3.61,14.88,14.88,0,0,0,2.78.23,11.27,11.27,0,0,0,4.49-.84,9.78,9.78,0,0,0,3.29-2.28,9.58,9.58,0,0,0,2-3.28,10.63,10.63,0,0,0,.72-3.87A12.39,12.39,0,0,0,119.26,17.74Zm-3.66,8.54a7.18,7.18,0,0,1-1.31,2.52,5.42,5.42,0,0,1-2.08,1.58,6.59,6.59,0,0,1-2.75.55,11.32,11.32,0,0,1-1.72-.12,9.73,9.73,0,0,1-1.38-.31,7.57,7.57,0,0,1-1.1-.47,5.75,5.75,0,0,1-.88-.55V19.25c0-.74,0-1.43,0-2.05s0-1.19.06-1.68a6.69,6.69,0,0,1,1.09-1,7.21,7.21,0,0,1,1.3-.76,7.08,7.08,0,0,1,1.36-.47,6,6,0,0,1,1.36-.17,5.67,5.67,0,0,1,3,.74,5.5,5.5,0,0,1,2,2.07A9.07,9.07,0,0,1,115.71,19a20.75,20.75,0,0,1,.35,3.91A11.57,11.57,0,0,1,115.6,26.28Z"/>
<path fill="#ffffff" d="M143.18,17.74a9.71,9.71,0,0,0-2.28-3.28,9.87,9.87,0,0,0-3.4-2.07,11.48,11.48,0,0,0-4.14-.74,11.23,11.23,0,0,0-4.19.78,10.52,10.52,0,0,0-3.4,2.17A10.17,10.17,0,0,0,122.7,22a10.81,10.81,0,0,0,.85,4.34,9.74,9.74,0,0,0,2.27,3.26,10.27,10.27,0,0,0,3.38,2.07,11.74,11.74,0,0,0,4.12.72,11.56,11.56,0,0,0,4.56-.84,10.29,10.29,0,0,0,3.36-2.28A9.39,9.39,0,0,0,143.3,26a11.34,11.34,0,0,0-.12-8.21Zm-3.55,8.54a7.52,7.52,0,0,1-1.31,2.52,5.5,5.5,0,0,1-2,1.58,5.73,5.73,0,0,1-2.54.55,6.45,6.45,0,0,1-3.12-.74,6.61,6.61,0,0,1-2.22-2.09,10.29,10.29,0,0,1-1.38-3.17,16.81,16.81,0,0,1-.44-3.92,11,11,0,0,1,.46-3.34,7.41,7.41,0,0,1,1.31-2.5,5.79,5.79,0,0,1,4.55-2.09,6.38,6.38,0,0,1,3.15.74,6,6,0,0,1,2.22,2.07A9.25,9.25,0,0,1,139.65,19a16.06,16.06,0,0,1,.46,3.91A10.9,10.9,0,0,1,139.63,26.28Z"/>
<path fill="#ffffff" d="M165.71,12v.08a8.1,8.1,0,0,0-.9,1.33,23.25,23.25,0,0,0-1.13,2.36L154.36,38c-.21.48-.42,1-.63,1.58a4.8,4.8,0,0,0-.33,1.74,3.33,3.33,0,0,0,0,.41.91.91,0,0,0,.08.23V42h-3.65v-.08a6.44,6.44,0,0,0,.9-1.3,25.21,25.21,0,0,0,1.16-2.33l2.75-6.52-6.88-15c-.25-.57-.51-1.12-.8-1.64s-.56-1-.82-1.43-.47-.76-.67-1a6,6,0,0,0-.39-.55V12h5.12v.08a.91.91,0,0,0-.06.29c0,.13,0,.25,0,.36a5.7,5.7,0,0,0,.18,1.34,10.83,10.83,0,0,0,.7,1.82l5.38,11.72,4.93-11.56c.2-.49.41-1,.63-1.59a5,5,0,0,0,.32-1.73,1.53,1.53,0,0,0,0-.41.59.59,0,0,0-.08-.24V12Z"/>
<path fill="#ffffff" d="M27.26.28A2.46,2.46,0,0,0,26.12,0a3.14,3.14,0,0,0-1.24.28A6.62,6.62,0,0,0,23,1.7c-1.83,1.85-4.47,1.92-6.35,1.66a12.15,12.15,0,0,1-5.06-1.83C9.77.05,8.11-.29,7,.6c-.89.73-1.12,2-.68,3.85a31.94,31.94,0,0,0,2.57,6.4,18.69,18.69,0,0,1,1.74,4.58,2.25,2.25,0,0,1,0,1.06c-.13.05-.82.23-3-.66a7.15,7.15,0,0,0-4.17-.62,3.81,3.81,0,0,0-2.69,2,5.19,5.19,0,0,0-.53,2.39A6.38,6.38,0,0,0,.44,21a5.12,5.12,0,0,0,2,3.14,9.21,9.21,0,0,0,5.21,1.51,12.79,12.79,0,0,0,3.73-.58,15,15,0,0,0,7.44-5c.75-1,1.33-1.76,1.75-2.22l.16-.17c.24.2.56.52.94.91h0l.45.44a2.59,2.59,0,0,0,2.69.8h0a9.25,9.25,0,0,1-4.92,6.54A12.71,12.71,0,0,1,9,26.65a1.46,1.46,0,0,0-2,1.84,1.46,1.46,0,0,0,.75.83,15.35,15.35,0,0,0,6.08,1.36v3.38H7.36a1.47,1.47,0,0,0,0,2.94h16a1.47,1.47,0,0,0,0-2.94H16.8v-3.6A14.83,14.83,0,0,0,21.23,29a12.33,12.33,0,0,0,4.13-3.46,12.14,12.14,0,0,0,2.32-5.34A86.51,86.51,0,0,0,29.27,7c0-.19,0-.38,0-.57C29.29,2.91,28.65,1,27.26.28Zm-.9,6.64c0,1.29-.12,2.83-.31,4.57a28.81,28.81,0,0,1-.8,2.91,7.34,7.34,0,0,1-1.19,2.48l-.27-.29-.06-.06c-1.15-1.16-2-2-3.18-1.92a3,3,0,0,0-1.94,1.05,28.81,28.81,0,0,0-2.12,2.62h0a12.13,12.13,0,0,1-5.95,4A7.65,7.65,0,0,1,4,21.73a2.25,2.25,0,0,1-.72-1.35,2.74,2.74,0,0,1,.1-1.78.94.94,0,0,1,.72-.52,2.35,2.35,0,0,1,.4,0,5.69,5.69,0,0,1,2.07.51,12.2,12.2,0,0,0,2.77.84,3.61,3.61,0,0,0,3.44-.89,4.05,4.05,0,0,0,.71-3.58,20.34,20.34,0,0,0-2-5.39A30,30,0,0,1,9.19,3.89c0-.21-.08-.4-.12-.55a4.09,4.09,0,0,1,.64.47A14.48,14.48,0,0,0,16.2,6.27a15,15,0,0,0,2,.14,10.7,10.7,0,0,0,3.47-.54A8.49,8.49,0,0,0,25,3.78,4.76,4.76,0,0,1,26,3,9.78,9.78,0,0,1,26.36,6.92Z"/>
<path fill="#dd7210" d="M27.1,6.94c0,1.32-.15,2.88-.34,4.66a23.56,23.56,0,0,1-.83,3c-.91,2.7-1.64,3.05-1.79,3.09s-.2.06-.51-.25c-.14-.15-.28-.3-.42-.43-1.08-1.1-1.72-1.77-2.61-1.71s-1.62.88-3.1,2.81c1.54-3,3.07-7.78-1.92-8.5a8.52,8.52,0,0,1-6.66-4.2c-.18-.51-.32-1-.43-1.38-.34-1.35-.13-1.7-.11-1.74s.79.07,1.8.91A14,14,0,0,0,16.3,5.55a13.76,13.76,0,0,0,1.88.13,8.64,8.64,0,0,0,6.33-2.42c.93-.94,1.53-1.14,1.74-1S27.17,2.92,27.1,6.94Z"/></svg>