<svg xmlns="http://www.w3.org/2000/svg" viewBox="0 0 100 100">

<rect fill="#ffffff" width="100" height="100" rx="15" ry="15"/>
<path d="M78,9.18a5.29,5.29,0,0,0-2.55-.63,6.93,6.93,0,0,0-2.76.61,14.55,14.55,0,0,0-4.23,3.2c-4.1,4.14-10,4.3-14.23,3.7A27,27,0,0,1,43.07,12c-4.22-3.3-7.91-4.06-10.42-2.07-2,1.62-2.51,4.49-1.55,8.61a72,72,0,0,0,5.76,14.34,40.46,40.46,0,0,1,3.9,10.26,5,5,0,0,1,0,2.37c-.29.12-1.84.52-6.72-1.47a16,16,0,0,0-9.37-1.39,8.58,8.58,0,0,0-6,4.48,12,12,0,0,0-1.18,5.33A16.34,16.34,0,0,0,18,55.6a11.54,11.54,0,0,0,4.48,7A20.68,20.68,0,0,0,34.13,66a29.1,29.1,0,0,0,8.38-1.32A33.65,33.65,0,0,0,59.17,53.5a61,61,0,0,1,3.93-5l.38-.38c.51.47,1.21,1.19,2.06,2.06h0c.29.32.6.65,1,1a5.82,5.82,0,0,0,6,1.81h0a20.73,20.73,0,0,1-11,14.66,28.32,28.32,0,0,1-24.37.58,3.25,3.25,0,0,0-4.31,1.58l0,0a3.32,3.32,0,0,0-.11,2.53,3.17,3.17,0,0,0,1.68,1.84,34.07,34.07,0,0,0,13.62,3v7.59H33.48a3.3,3.3,0,0,0,0,6.59H69.32a3.3,3.3,0,0,0,0-6.59H54.63V76.77a32.73,32.73,0,0,0,9.92-3.24,28,28,0,0,0,9.26-7.76,27.15,27.15,0,0,0,5.19-12,192.17,192.17,0,0,0,3.54-29.58V23C82.59,15.07,81.15,10.79,78,9.18ZM75.33,34.27a58.15,58.15,0,0,1-1.79,6.52,16.44,16.44,0,0,1-2.67,5.56c-.18-.23-.43-.43-.6-.63l-.14-.13C67.6,43,65.65,41.11,63,41.26a6.89,6.89,0,0,0-4.37,2.38,58.09,58.09,0,0,0-4.73,5.87,27.12,27.12,0,0,1-13.44,9,17.15,17.15,0,0,1-14.56-1.23,5.09,5.09,0,0,1-1.64-3.05,6.2,6.2,0,0,1,.22-4,2.26,2.26,0,0,1,1.62-1.14,3.32,3.32,0,0,1,.89,0,12.4,12.4,0,0,1,4.64,1.12,29.15,29.15,0,0,0,6.21,1.9,8.12,8.12,0,0,0,7.7-2,9.13,9.13,0,0,0,1.62-8A46.13,46.13,0,0,0,42.71,30a72.07,72.07,0,0,1-5.16-12.73A6.54,6.54,0,0,0,37.31,16a14.84,14.84,0,0,1,1.45,1,31.9,31.9,0,0,0,14.5,5.52,30.5,30.5,0,0,0,4.48.33,24.29,24.29,0,0,0,7.75-1.21A19,19,0,0,0,73,17a10.47,10.47,0,0,1,2.24-1.73A22,22,0,0,1,76.16,24C76,26.94,75.75,30.37,75.33,34.27Z"/>
<path fill="#dd7210" d="M77.68,24.08a97.49,97.49,0,0,1-.76,10.46,53.85,53.85,0,0,1-1.84,6.72c-2.06,6.07-3.67,6.72-4,7s-.47.13-1.16-.58l-.94-1c-2.42-2.47-3.86-3.94-5.83-3.81s-3.65,2-7,6.3c3.45-6.73,6.88-17.44-4.3-19.07A19.12,19.12,0,0,1,37,20.65a28.94,28.94,0,0,1-.94-3c-.79-3-.29-3.81-.27-3.9s1.77.18,4,2A31,31,0,0,0,53.51,21a29.58,29.58,0,0,0,4.21.29,19.35,19.35,0,0,0,14.16-5.4c2.08-2.12,3.43-2.55,3.9-2.24S77.84,15.09,77.68,24.08Z"/></svg>